<mxfile host="app.diagrams.net" modified="2024-04-17T23:13:36.415Z" agent="Mozilla/5.0 (Windows NT 10.0; Win64; x64) AppleWebKit/537.36 (KHTML, like Gecko) Chrome/124.0.0.0 Safari/537.36" version="24.2.3" etag="HuormqDAkuO_bW1U7isf" type="github">
  <diagram name="Page-1" id="xSJTGuTVrLQrfMxb62Y1">
    <mxGraphModel>
      <root>
        <mxCell id="0" />
        <mxCell id="1" parent="0" />
      </root>
    </mxGraphModel>
  </diagram>
</mxfile>
